<?xml version="1.0" standalone="no"?>
<!DOCTYPE svg PUBLIC "-//W3C//DTD SVG 20010904//EN"
 "http://www.w3.org/TR/2001/REC-SVG-20010904/DTD/svg10.dtd">
<svg version="1.0" xmlns="http://www.w3.org/2000/svg"
 width="50.000000pt" height="50.000000pt" viewBox="0 0 50.000000 50.000000"
 preserveAspectRatio="xMidYMid meet">

<g transform="translate(0.000000,50.000000) scale(0.100000,-0.100000)"
fill="#000000" stroke="none">
<path d="M201 462 c-47 -26 -74 -76 -66 -126 12 -80 101 -256 129 -256 15 0
98 160 117 228 33 114 -79 210 -180 154z m95 -27 c84 -35 74 -156 -15 -178
-39 -10 -90 18 -106 58 -14 31 -14 39 -1 70 10 23 27 41 48 50 41 18 33 18 74
0z"/>
<path d="M215 395 c-30 -30 -31 -54 -4 -89 26 -33 68 -34 97 -3 30 32 28 71
-4 96 -35 27 -59 26 -89 -4z"/>
<path d="M162 85 c-40 -18 -38 -34 9 -57 45 -23 133 -23 178 0 47 23 49 40 7
57 -34 14 -36 14 -60 -10 -31 -31 -41 -31 -72 0 -14 14 -26 25 -27 25 -1 -1
-17 -7 -35 -15z"/>
</g>
</svg>
