<?xml version="1.0" standalone="no"?>
<!DOCTYPE svg PUBLIC "-//W3C//DTD SVG 20010904//EN"
 "http://www.w3.org/TR/2001/REC-SVG-20010904/DTD/svg10.dtd">
<svg version="1.0" xmlns="http://www.w3.org/2000/svg"
 width="100.000000pt" height="100.000000pt" viewBox="0 0 100.000000 100.000000"
 preserveAspectRatio="xMidYMid meet">

<g transform="translate(0.000000,100.000000) scale(0.100000,-0.100000)"
fill="#000000" stroke="none">
<path d="M443 959 c-88 -16 -156 -68 -192 -149 -30 -65 -27 -132 10 -237 39
-112 149 -337 187 -383 47 -55 65 -39 154 137 132 258 164 381 124 478 -19 45
-77 109 -119 132 -40 20 -114 30 -164 22z m134 -86 c56 -26 103 -106 103 -173
0 -42 -46 -123 -85 -149 -126 -85 -295 2 -295 153 0 147 142 233 277 169z"/>
<path d="M435 836 c-54 -23 -85 -70 -85 -128 0 -85 55 -138 144 -138 36 0 52
6 80 30 83 73 65 194 -34 234 -48 19 -65 19 -105 2z"/>
<path d="M300 183 c-72 -31 -87 -63 -47 -100 85 -79 394 -77 473 3 21 20 23
27 14 44 -14 27 -66 58 -109 66 -27 5 -36 3 -44 -12 -18 -31 -54 -63 -80 -69
-34 -9 -89 18 -111 55 -19 34 -41 37 -96 13z"/>
</g>
</svg>
